PathFileType  4	(X/Y/Z) C:\Users\antoi\Documents\MyRepositories\mobilecap\ResultsAnalysis
DataRate	CameraRate	NumFrames	NumMarkers	Units	OrigDataRate	OrigDataStartFrame	OrigNumFrames
100.0	100.0	4	51	mm	100.0	882	1411
Frame#	Time	r_knee			r_shank_antsup			r_ankle			r_calc			r_5meta			r_toe			L_knee			L_shank_antsup			L_ankle			L_calc			L_5meta			L_toe			r_sh2			r_sh3			r_sh4			L_sh2			L_sh3			r_thigh1			r_thigh2			r_thigh3			r_thigh4			r_thigh5			L_thigh1			L_thigh2			L_thigh3			L_thigh4			r.ASIS			r.PSIS			L.ASIS			L.PSIS			C7			R_Shoulder			L_Shoulder			R_Sternum			L_Sternum			R_humerus			R_elbow_med			R_elbow_lat			R_forearm			R_wrist_radius			R_wrist_ulna			L_humerus			L_elbow_med			L_elbow_lat			L_forearm			L_wrist_radius			L_wrist_ulna			R_HJC			L_HJC			R_HJC_reg			L_HJC_reg			
		X1	Y1	Z1	X2	Y2	Z2	X3	Y3	Z3	X4	Y4	Z4	X5	Y5	Z5	X6	Y6	Z6	X7	Y7	Z7	X8	Y8	Z8	X9	Y9	Z9	X10	Y10	Z10	X11	Y11	Z11	X12	Y12	Z12	X13	Y13	Z13	X14	Y14	Z14	X15	Y15	Z15	X16	Y16	Z16	X17	Y17	Z17	X18	Y18	Z18	X19	Y19	Z19	X20	Y20	Z20	X21	Y21	Z21	X22	Y22	Z22	X23	Y23	Z23	X24	Y24	Z24	X25	Y25	Z25	X26	Y26	Z26	X27	Y27	Z27	X28	Y28	Z28	X29	Y29	Z29	X30	Y30	Z30	X31	Y31	Z31	X32	Y32	Z32	X33	Y33	Z33	X34	Y34	Z34	X35	Y35	Z35	X36	Y36	Z36	X37	Y37	Z37	X38	Y38	Z38	X39	Y39	Z39	X40	Y40	Z40	X41	Y41	Z41	X42	Y42	Z42	X43	Y43	Z43	X44	Y44	Z44	X45	Y45	Z45	X46	Y46	Z46	X47	Y47	Z47	X48	Y48	Z48	X49	Y49	Z49	X50	Y50	Z50	X51	Y51	Z51	

882	8.81000000	-247.36020	455.35119	-415.40405	-222.14517	392.28718	-384.53354	-278.15100	95.51542	-410.12704	-337.56397	51.53624	-449.78592	-174.56465	61.43240	-372.71124	-131.24967	89.79038	-423.28797	-240.42663	448.79547	-820.26348	-192.66434	386.10850	-827.20254	-265.55926	93.00024	-787.00869	-329.06882	53.76201	-735.75915	-171.18005	53.95505	-813.53836	-124.41764	90.04979	-767.12529	-236.54444	280.23931	-376.19368	-294.32465	398.81166	-402.85939	-315.66084	284.37271	-398.36389	-279.80580	401.81170	-841.22191	-288.98863	279.96516	-836.80867	-522.04196	575.53355	-480.56454	-412.76648	566.05063	-452.93932	-405.65974	525.74962	-398.67803	-548.85451	501.50726	-398.85041	-434.63749	476.91214	-390.13129	-507.16172	556.41170	-788.35283	-371.08799	546.87834	-801.94515	-524.94023	446.06757	-822.49842	-382.58646	443.02490	-831.57047	-541.59697	577.30689	-485.60684	-711.59399	606.80135	-570.43200	-526.16001	567.55174	-741.06456	-708.20957	598.04323	-676.32593	-429.41699	1001.42756	-597.51985	-374.60383	932.81587	-448.08721	-351.01787	934.80036	-748.69960	-339.28987	878.98567	-574.21729	-336.29220	878.22436	-615.82395	-403.68654	725.21188	-327.05626	-450.04177	612.98372	-360.46942	-422.60067	650.19818	-292.43532	-324.61887	677.57878	-348.04328	-238.92281	702.54792	-412.97087	-224.27239	660.19344	-408.38847	-332.81209	818.47970	-813.78489	-396.72479	606.19943	-834.60115	-376.72418	632.78629	-903.42335	-280.60609	673.63422	-855.66139	-199.12750	709.91981	-778.39251	-181.54336	677.96856	-780.99422	-608.19545	506.16914	-514.26912	-593.32713	500.48103	-713.92288	-606.55559	505.11822	-517.91018	-601.17621	491.19300	-686.29146	
883	8.82000000	-245.72611	454.72671	-414.94568	-220.52939	391.52353	-384.09840	-278.27905	95.24448	-409.99903	-337.58328	51.42032	-449.86428	-174.77487	61.28500	-372.55503	-131.45992	90.14879	-422.73868	-238.06154	447.83948	-821.10200	-190.38684	385.00716	-827.91518	-265.36922	92.63305	-787.10628	-328.63501	53.84720	-735.67807	-171.06886	53.31079	-813.92523	-124.17958	89.58412	-767.66593	-235.77278	279.64015	-375.93680	-292.81023	398.65427	-402.62901	-314.91680	284.40359	-398.12928	-277.38647	401.61520	-842.16471	-287.84876	279.64009	-837.20070	-519.37769	576.52859	-480.51123	-410.43666	566.57333	-451.97729	-403.52726	525.64241	-398.13521	-546.53795	502.24474	-399.29983	-432.89848	476.99545	-390.08339	-504.17367	557.13711	-788.38294	-367.96168	546.33673	-802.47867	-522.59598	446.78632	-821.87863	-380.33459	442.74262	-832.09681	-538.19207	578.86136	-484.37986	-706.62783	610.12265	-570.71304	-520.10028	566.37694	-740.26156	-702.89662	601.19359	-676.85953	-417.47523	1000.15752	-597.54379	-363.36244	930.77812	-448.64415	-339.36745	932.17922	-747.67810	-329.58966	876.05363	-573.95957	-326.24622	875.29522	-615.23853	-390.18926	725.12300	-324.98383	-436.53080	612.19254	-356.17349	-408.16275	650.42807	-289.17771	-310.98844	677.71487	-346.07335	-226.28858	702.42609	-412.39143	-211.26195	660.23596	-407.51399	-319.45318	816.87156	-813.23819	-380.98824	604.32393	-837.18832	-359.97907	631.78639	-905.11404	-265.19123	673.10011	-855.50875	-185.53661	709.69096	-776.56482	-167.53722	677.98139	-779.20137	-605.57308	508.48190	-513.21685	-589.12473	500.94432	-712.68928	-603.15748	506.13157	-516.89663	-597.22379	491.93267	-685.69997	
884	8.83000000	-243.71724	453.76621	-414.46274	-218.74640	390.63005	-383.54542	-278.09670	94.82400	-409.69285	-337.51001	51.40751	-450.01195	-174.83949	60.17984	-372.47596	-131.29622	89.83182	-421.86628	-235.43628	446.61633	-821.81631	-187.81627	383.73103	-828.61324	-264.81857	92.06327	-787.05286	-328.07782	53.98261	-735.55728	-170.83070	52.18687	-814.01897	-123.65834	88.53539	-768.12739	-234.67885	278.89306	-375.45008	-290.79121	398.46473	-402.26823	-313.85441	284.42531	-397.65695	-274.74604	401.14299	-843.16389	-286.07635	278.92127	-837.58776	-515.25691	578.41689	-480.78087	-406.81147	567.12155	-450.99228	-401.11418	525.31395	-397.56425	-544.09016	502.81158	-399.61775	-430.84831	476.80646	-390.03604	-500.78687	558.09393	-789.06735	-364.36467	545.48389	-803.09636	-519.91741	447.34602	-821.46595	-377.79510	442.12299	-832.37972	-534.40736	580.56796	-482.77755	-701.47992	613.57979	-571.20099	-515.27682	566.32408	-739.52162	-697.49459	604.60255	-677.31179	-404.93818	999.60090	-597.59338	-352.36320	929.02458	-449.33594	-327.96921	929.85870	-746.79069	-320.03768	873.49114	-573.64677	-316.60281	872.62930	-614.89856	-376.58085	725.55860	-322.96081	-422.24308	611.63293	-352.12057	-393.51702	651.02062	-286.06791	-297.22458	678.29814	-344.32469	-213.45275	702.71618	-411.83288	-197.98706	660.80189	-406.67796	-306.04390	815.56598	-812.57364	-364.97198	602.83509	-839.15612	-343.19614	630.85062	-905.97914	-249.76334	672.95802	-855.06899	-171.89828	709.89303	-774.56211	-153.63328	678.31310	-777.00957	-602.71451	510.97741	-512.38923	-585.13870	502.16245	-711.71658	-599.98187	507.57386	-515.61583	-593.61607	493.23866	-685.06836	
885	8.84000000	-241.33695	452.53372	-413.83718	-216.59956	389.61915	-382.81740	-277.53092	94.22820	-409.48483	-337.22846	51.58475	-450.14642	-174.77779	58.98543	-372.02521	-130.85636	89.01522	-420.92938	-232.56012	445.21435	-822.10995	-184.98248	382.26613	-829.01882	-263.95354	91.47558	-786.93191	-327.51720	54.20105	-735.37545	-170.46937	51.07773	-813.95135	-122.93307	87.16940	-768.27045	-233.20149	277.86077	-374.82453	-288.29112	398.04938	-401.57548	-312.29751	284.01595	-397.24909	-271.90654	400.05919	-843.69238	-283.78108	277.90109	-837.81643	-511.60690	579.41151	-479.96314	-403.50310	566.84992	-449.50735	-398.31081	524.73952	-397.09753	-541.44488	503.36452	-399.61945	-428.43143	476.39657	-390.09947	-496.86624	558.92634	-790.12095	-360.45401	544.73022	-803.80930	-516.88349	447.90403	-821.12600	-374.91700	441.19690	-832.02659	-530.09631	581.87729	-481.83226	-696.23455	617.09507	-571.65742	-511.03397	566.98329	-738.67303	-691.99111	608.25742	-677.58636	-392.56180	999.52174	-597.88464	-341.02160	927.66213	-450.04081	-316.86190	927.95299	-745.84369	-310.78757	871.41239	-573.37118	-307.25741	870.37371	-614.61004	-362.96960	726.38714	-321.19673	-407.87004	611.55300	-348.21511	-378.72385	652.10253	-283.15848	-283.37742	679.32549	-342.81940	-200.55053	703.49133	-411.37942	-184.71429	661.84248	-405.84729	-292.59047	814.63464	-811.69970	-348.90701	601.67755	-840.87988	-326.60277	630.42639	-906.89025	-234.44005	673.31114	-854.28439	-158.31190	710.54397	-772.46157	-139.81597	679.10818	-774.83827	-599.55023	513.28109	-511.97811	-581.36525	503.89765	-711.22271	-596.80222	509.32294	-515.04706	-590.01168	495.17724	-684.58824	
